<?xml version="1.0" encoding="utf-8"?>
<!-- Generator: Adobe Illustrator 16.0.3, SVG Export Plug-In . SVG Version: 6.00 Build 0)  -->
<!DOCTYPE svg PUBLIC "-//W3C//DTD SVG 1.1//EN" "http://www.w3.org/Graphics/SVG/1.1/DTD/svg11.dtd">
<svg version="1.1" id="Camada_1" xmlns="http://www.w3.org/2000/svg" xmlns:xlink="http://www.w3.org/1999/xlink" x="0px" y="0px"
	 width="1500px" height="1000px" viewBox="0 0 1500 1000" enable-background="new 0 0 1500 1000" xml:space="preserve">
<g>
	<g>
		<g opacity="0.35">
			<text transform="matrix(1 0 0 1 362.4453 907.9619)"><tspan x="0" y="0" font-family="'Rubik-Medium'" font-size="218.4037">mate</tspan><tspan x="546.659" y="0" font-family="'Rubik-Medium'" font-size="218.4037" letter-spacing="6">fy</tspan></text>
		</g>
		<g>
			<text transform="matrix(1 0 0 1 362.4453 904.9619)"><tspan x="0" y="0" fill="#FFFFFF" font-family="'Rubik-Medium'" font-size="218.4037">mate</tspan><tspan x="546.659" y="0" fill="#FFFFFF" font-family="'Rubik-Medium'" font-size="218.4037" letter-spacing="6">fy</tspan></text>
		</g>
	</g>
	<g>
		<g>
			<g>
				<path fill="#FFFFFF" d="M37.607,228.721c-8.729,0-15.791,7.371-15.791,16.461v174.246c0,9.09,7.063,16.469,15.791,16.469
					c8.68,0,15.746-7.379,15.746-16.469V245.182C53.354,236.092,46.287,228.721,37.607,228.721z"/>
				<path fill="#FFFFFF" d="M1462.424,228.721c-8.688,0-15.795,7.371-15.795,16.461v174.246c0,9.09,7.107,16.469,15.795,16.469
					c8.727,0,15.76-7.379,15.76-16.469V245.182C1478.184,236.092,1471.15,228.721,1462.424,228.721z"/>
				<path fill="#FFFFFF" d="M725.396,50.681c-8.693,0-15.76,7.344-15.76,16.45v106v317.367v108c0,9.07,7.066,16.445,15.76,16.445
					c8.715,0,15.762-7.375,15.762-16.445v-108V173.131v-106C741.158,58.024,734.111,50.681,725.396,50.681z"/>
				<path fill="#FFFFFF" d="M679.42,73.818c-8.715,0-15.768,7.378-15.768,16.468v41v376.259v108c0,9.09,7.053,16.451,15.768,16.451
					c8.707,0,15.775-7.361,15.775-16.451v-108V131.286v-41C695.195,81.196,688.127,73.818,679.42,73.818z"/>
				<path fill="#FFFFFF" d="M129.225,93.946c-8.713,0-15.76,7.378-15.76,16.461v108v222.677v108c0,9.104,7.047,16.459,15.76,16.459
					c8.697,0,15.779-7.355,15.779-16.459v-108V218.407v-108C145.004,101.324,137.922,93.946,129.225,93.946z"/>
				<path fill="#FFFFFF" d="M83.574,163.249c-8.715,0-15.762,7.354-15.762,16.444v108v88.209v108
					c0,9.098,7.047,16.465,15.762,16.465c8.695,0,15.76-7.367,15.76-16.465v-108v-88.209v-108
					C99.334,170.604,92.27,163.249,83.574,163.249z"/>
				<path fill="#FFFFFF" d="M541.914,128.929c-8.701,0-15.76,7.389-15.76,16.455v108v156.829v108c0,9.082,7.059,16.465,15.76,16.465
					c8.729,0,15.76-7.383,15.76-16.465v-108V253.384v-108C557.674,136.317,550.643,128.929,541.914,128.929z"/>
				<path fill="#FFFFFF" d="M495.943,99.417c-8.727,0-15.773,7.378-15.773,16.481v108v215.805v108
					c0,9.104,7.047,16.473,15.773,16.473c8.701,0,15.762-7.369,15.762-16.473v-108V223.898v-108
					C511.705,106.795,504.645,99.417,495.943,99.417z"/>
				<path fill="#FFFFFF" d="M633.561,50.438c-8.695,0-15.795,7.361-15.795,16.451v98v333.818v108c0,9.104,7.1,16.479,15.795,16.479
					c8.713,0,15.781-7.375,15.781-16.479v-108V164.889v-98C649.342,57.799,642.273,50.438,633.561,50.438z"/>
				<path fill="#FFFFFF" d="M403.609,75.253c-8.701,0-15.762,7.36-15.762,16.457v102v276.196v108c0,9.09,7.061,16.465,15.762,16.465
					c8.693,0,15.76-7.375,15.76-16.465v-108V193.71v-102C419.369,82.613,412.303,75.253,403.609,75.253z"/>
				<path fill="#FFFFFF" d="M357.611,49.165c-8.701,0-15.732,7.378-15.732,16.468v78v376.344v108
					c0,9.111,7.031,16.465,15.732,16.465c8.729,0,15.773-7.354,15.773-16.465v-108V143.633v-78
					C373.385,56.543,366.34,49.165,357.611,49.165z"/>
				<path fill="#FFFFFF" d="M449.258,111.781c-8.715,0-15.762,7.378-15.762,16.475v108v191.098v108
					c0,9.111,7.047,16.479,15.762,16.479c8.699,0,15.76-7.367,15.76-16.479v-108V236.256v-108
					C465.018,119.159,457.957,111.781,449.258,111.781z"/>
				<path fill="#FFFFFF" d="M311.754,75.438c-8.713,0-15.777,7.361-15.777,16.451v73v333.818v108
					c0,9.104,7.064,16.479,15.777,16.479c8.711,0,15.777-7.375,15.777-16.479v-108V164.889v-73
					C327.531,82.799,320.465,75.438,311.754,75.438z"/>
				<path fill="#FFFFFF" d="M587.598,76.788c-8.715,0-15.795,7.378-15.795,16.468v108v261.092v108c0,9.09,7.08,16.465,15.795,16.465
					c8.666,0,15.76-7.375,15.76-16.465v-108V201.256v-108C603.357,84.166,596.264,76.788,587.598,76.788z"/>
				<path fill="#FFFFFF" d="M174.781,127.258c-8.68,0-15.744,6.947-15.744,15.525v108v162.061v108
					c0,8.557,7.064,15.508,15.744,15.508c8.732,0,15.795-6.951,15.795-15.508v-108V250.783v-108
					C190.576,134.205,183.514,127.258,174.781,127.258z"/>
				<path fill="#FFFFFF" d="M266.43,87.095c-8.695,0-15.76,6.937-15.76,15.508v108v242.401v108c0,8.57,7.064,15.516,15.76,15.516
					c8.715,0,15.779-6.945,15.779-15.516v-108V210.603v-108C282.209,94.031,275.145,87.095,266.43,87.095z"/>
				<path fill="#FFFFFF" d="M220.451,78.138c-8.697,0-15.762,6.937-15.762,15.511v108v260.309v108
					c0,8.578,7.064,15.516,15.762,15.516c8.711,0,15.777-6.938,15.777-15.516v-108V201.648v-108
					C236.229,85.074,229.162,78.138,220.451,78.138z"/>
				<path fill="#FFFFFF" d="M774.627,114.525c-8.693,0-15.762,7.381-15.762,16.468v108v251.505v108
					c0,9.07,7.068,16.445,15.762,16.445c8.686,0,15.732-7.375,15.732-16.445v-108V238.993v-108
					C790.359,121.906,783.313,114.525,774.627,114.525z"/>
				<path fill="#FFFFFF" d="M820.596,68.545c-8.68,0-15.76,7.378-15.76,16.485v108v326.946v108c0,9.111,7.08,16.465,15.76,16.465
					c8.693,0,15.789-7.354,15.789-16.465v-108V193.03v-108C836.385,75.923,829.289,68.545,820.596,68.545z"/>
				<path fill="#FFFFFF" d="M1370.832,89.832c-8.729,0-15.787,7.371-15.787,16.468v108v230.905v108
					c0,9.084,7.059,16.459,15.787,16.459c8.701,0,15.732-7.375,15.732-16.459v-108V214.3v-108
					C1386.564,97.203,1379.533,89.832,1370.832,89.832z"/>
				<path fill="#FFFFFF" d="M1416.467,163.249c-8.707,0-15.773,7.354-15.773,16.444v108v88.209v108
					c0,9.098,7.066,16.465,15.773,16.465c8.688,0,15.748-7.367,15.748-16.465v-108v-88.209v-108
					C1432.215,170.604,1425.154,163.249,1416.467,163.249z"/>
				<path fill="#FFFFFF" d="M958.102,128.929c-8.699,0-15.781,7.389-15.781,16.455v108v156.829v108
					c0,9.082,7.082,16.465,15.781,16.465c8.68,0,15.775-7.383,15.775-16.465v-108V253.384v-108
					C973.877,136.317,966.781,128.929,958.102,128.929z"/>
				<path fill="#FFFFFF" d="M1004.1,99.417c-8.729,0-15.748,7.378-15.748,16.481v108v215.805v108c0,9.104,7.02,16.473,15.748,16.473
					c8.707,0,15.74-7.369,15.74-16.473v-108V223.898v-108C1019.84,106.795,1012.807,99.417,1004.1,99.417z"/>
				<path fill="#FFFFFF" d="M866.463,51.438c-8.693,0-15.773,7.361-15.773,16.451v97v333.818v108c0,9.104,7.08,16.479,15.773,16.479
					c8.701,0,15.748-7.375,15.748-16.479v-108V164.889v-97C882.211,58.799,875.164,51.438,866.463,51.438z"/>
				<path fill="#FFFFFF" d="M912.461,87.31c-8.693,0-15.773,7.361-15.773,16.451v61.128v333.818v73
					c0,9.104,7.08,16.479,15.773,16.479c8.701,0,15.748-7.375,15.748-16.479v-73V164.889v-61.128
					C928.209,94.671,921.162,87.31,912.461,87.31z"/>
				<path fill="#FFFFFF" d="M1096.436,69.253c-8.729,0-15.775,7.36-15.775,16.457v108v276.196v108
					c0,9.09,7.047,16.465,15.775,16.465c8.713,0,15.732-7.375,15.732-16.465v-108V193.71v-108
					C1112.168,76.613,1105.148,69.253,1096.436,69.253z"/>
				<path fill="#FFFFFF" d="M1142.418,75.165c-8.699,0-15.76,7.371-15.76,16.461v52v376.372v108c0,9.068,7.061,16.443,15.76,16.443
					c8.693,0,15.762-7.375,15.762-16.443v-108V143.626v-52C1158.18,82.536,1151.111,75.165,1142.418,75.165z"/>
				<path fill="#FFFFFF" d="M1050.766,111.781c-8.693,0-15.773,7.378-15.773,16.475v108v191.098v108
					c0,9.111,7.08,16.479,15.773,16.479c8.666,0,15.768-7.367,15.768-16.479v-108V236.256v-108
					C1066.533,119.159,1059.432,111.781,1050.766,111.781z"/>
				<path fill="#FFFFFF" d="M1188.258,40.438c-8.713,0-15.76,7.361-15.76,16.451v108v333.818v108c0,9.104,7.047,16.479,15.76,16.479
					c8.715,0,15.762-7.375,15.762-16.479v-108V164.889v-108C1204.02,47.799,1196.973,40.438,1188.258,40.438z"/>
				<path fill="#FFFFFF" d="M1325.244,127.258c-8.699,0-15.773,6.947-15.773,15.525v108v162.061v108
					c0,8.557,7.074,15.508,15.773,15.508c8.682,0,15.775-6.951,15.775-15.508v-108V250.783v-108
					C1341.02,134.205,1333.926,127.258,1325.244,127.258z"/>
				<path fill="#FFFFFF" d="M1233.578,87.095c-8.693,0-15.773,6.937-15.773,15.508v108v242.401v108
					c0,8.57,7.08,15.516,15.773,15.516c8.715,0,15.781-6.945,15.781-15.516v-108V210.603v-108
					C1249.359,94.031,1242.293,87.095,1233.578,87.095z"/>
				<path fill="#FFFFFF" d="M1279.563,78.138c-8.701,0-15.734,6.937-15.734,15.511v108v260.309v108
					c0,8.578,7.033,15.516,15.734,15.516c8.729,0,15.795-6.938,15.795-15.516v-108V201.648v-108
					C1295.357,85.074,1288.291,78.138,1279.563,78.138z"/>
			</g>
		</g>
		<g>
			<linearGradient id="SVGID_1_" gradientUnits="userSpaceOnUse" x1="647.8896" y1="182.2686" x2="647.8896" y2="558.3242">
				<stop  offset="0.6318" style="stop-color:#5BCC99"/>
				<stop  offset="0.6425" style="stop-color:#5CCB99"/>
				<stop  offset="0.8155" style="stop-color:#67C09F"/>
				<stop  offset="1" style="stop-color:#6BBCA1"/>
			</linearGradient>
			<path fill="url(#SVGID_1_)" d="M701.424,501.256c-11.59,18.01-10.928,40.188-0.156,57.068L545.814,317.998l48.381-74.914
				c15.926-24.591-9.355-72.283-0.342-58.296L749.965,426.02L701.424,501.256z"/>
			<linearGradient id="SVGID_2_" gradientUnits="userSpaceOnUse" x1="1084.8882" y1="182.2881" x2="1084.8882" y2="586.6934">
				<stop  offset="0.6318" style="stop-color:#5BCC99"/>
				<stop  offset="0.6425" style="stop-color:#5CCB99"/>
				<stop  offset="0.8155" style="stop-color:#67C09F"/>
				<stop  offset="1" style="stop-color:#6BBCA1"/>
			</linearGradient>
			<path fill="url(#SVGID_2_)" d="M1191.393,574.4l-5.953,3.854c-24.428,15.762-57.221,8.846-72.967-15.746l-158.195-244.51
				l48.404-74.914c15.896-24.591-9.549-72.215-0.506-58.296l204.807,316.468C1222.9,525.846,1215.832,558.488,1191.393,574.4z"/>
			<linearGradient id="SVGID_3_" gradientUnits="userSpaceOnUse" x1="545.7324" y1="157.8867" x2="545.7324" y2="317.998">
				<stop  offset="0" style="stop-color:#F45C43"/>
				<stop  offset="0.0854" style="stop-color:#F25544"/>
				<stop  offset="0.3779" style="stop-color:#EE4247"/>
				<stop  offset="0.6791" style="stop-color:#EC3748"/>
				<stop  offset="1" style="stop-color:#EB3349"/>
			</linearGradient>
			<path fill="url(#SVGID_3_)" d="M594.195,243.084l-48.381,74.914l-48.555-74.914c-12.055-18.648-10.941-42.119,1.115-59.161
				c3.861-5.461,8.699-10.125,14.633-13.979l5.945-3.862c8.373-5.308,17.539-8.037,26.861-8.194
				c9.309,0.157,18.48,2.888,26.846,8.194l5.932,3.862C603.02,185.854,610.121,218.493,594.195,243.084z"/>
			<linearGradient id="SVGID_4_" gradientUnits="userSpaceOnUse" x1="415.1577" y1="183.9229" x2="415.1577" y2="586.6934">
				<stop  offset="0" style="stop-color:#F45C43"/>
				<stop  offset="0.0854" style="stop-color:#F25544"/>
				<stop  offset="0.3779" style="stop-color:#EE4247"/>
				<stop  offset="0.6791" style="stop-color:#EC3748"/>
				<stop  offset="1" style="stop-color:#EB3349"/>
			</linearGradient>
			<path fill="url(#SVGID_4_)" d="M497.26,243.084l48.555,74.914l-158.195,244.51c-15.746,24.592-48.553,31.508-72.984,15.746
				l-5.932-3.854c-24.615-15.912-31.525-48.555-15.76-73.145l205.432-317.333C486.318,200.965,485.205,224.436,497.26,243.084z"/>
			<linearGradient id="SVGID_5_" gradientUnits="userSpaceOnUse" x1="954.1089" y1="157.8867" x2="954.1089" y2="317.998">
				<stop  offset="0" style="stop-color:#F45C43"/>
				<stop  offset="0.0854" style="stop-color:#F25544"/>
				<stop  offset="0.3779" style="stop-color:#EE4247"/>
				<stop  offset="0.6791" style="stop-color:#EC3748"/>
				<stop  offset="1" style="stop-color:#EB3349"/>
			</linearGradient>
			<path fill="url(#SVGID_5_)" d="M1002.682,243.084l-48.404,74.914l-48.553-74.914c-15.746-24.591-9.041-52.285,11.695-72.096
				l8.426-5.857c8.373-5.304,19.109-7.087,28.432-7.244c9.33,0.157,18.482,2.888,26.848,8.194l5.945,3.862
				C1011.498,185.854,1018.578,218.493,1002.682,243.084z"/>
			<linearGradient id="SVGID_6_" gradientUnits="userSpaceOnUse" x1="750.0464" y1="426.0195" x2="750.0464" y2="586.457">
				<stop  offset="0" style="stop-color:#F45C43"/>
				<stop  offset="0.0854" style="stop-color:#F25544"/>
				<stop  offset="0.3779" style="stop-color:#EE4247"/>
				<stop  offset="0.6791" style="stop-color:#EC3748"/>
				<stop  offset="1" style="stop-color:#EB3349"/>
			</linearGradient>
			<path fill="url(#SVGID_6_)" d="M798.832,558.324l-1.777,2.734c-3.861,5.141-8.502,9.637-14.127,13.342l-5.967,3.854
				c-8.352,5.311-17.674,8.039-26.996,8.203c-9.33-0.164-18.652-2.893-27.004-8.203l-5.797-3.854
				c-5.631-3.705-10.279-8.201-14.141-13.342c-0.643-0.807-1.291-1.77-1.756-2.734c-10.771-16.881-11.434-39.059,0.156-57.068
				l48.541-75.236l48.709,75.236C810.246,519.266,809.604,541.443,798.832,558.324z"/>
			<linearGradient id="SVGID_7_" gradientUnits="userSpaceOnUse" x1="852.1211" y1="158.5225" x2="852.1211" y2="558.3242">
				<stop  offset="0" style="stop-color:#F45C43"/>
				<stop  offset="0.0854" style="stop-color:#F25544"/>
				<stop  offset="0.3779" style="stop-color:#EE4247"/>
				<stop  offset="0.6791" style="stop-color:#EC3748"/>
				<stop  offset="1" style="stop-color:#EB3349"/>
			</linearGradient>
			<path fill="url(#SVGID_7_)" d="M798.832,558.324c10.771-16.881,11.414-39.059-0.158-57.068l-48.709-75.236L907.98,181.835
				c9.016-13.987,23.648-21.703,39.061-23.313c-6.746,1.131-13.342,3.54-19.609,7.559l-5.945,3.862
				c-24.584,15.91-31.508,48.55-15.762,73.141l48.553,74.914L798.832,558.324z"/>
		</g>
	</g>
</g>
</svg>
